<?xml version="1.0" standalone="no"?>
<!DOCTYPE svg PUBLIC "-//W3C//DTD SVG 20010904//EN"
 "http://www.w3.org/TR/2001/REC-SVG-20010904/DTD/svg10.dtd">
<svg version="1.0" xmlns="http://www.w3.org/2000/svg"
 width="694.000000pt" height="360.000000pt" viewBox="0 0 694.000000 360.000000"
 preserveAspectRatio="xMidYMid meet">

<g transform="translate(0.000000,360.000000) scale(0.100000,-0.100000)"
fill="#000000" stroke="none">
<path d="M1875 3574 c-16 -2 -77 -9 -135 -15 -155 -16 -372 -75 -524 -143 -28
-13 -62 -28 -76 -34 -87 -39 -242 -136 -360 -225 -163 -125 -315 -285 -435
-461 -176 -260 -303 -693 -281 -956 16 -186 58 -403 98 -504 119 -305 253
-502 484 -716 56 -51 160 -131 170 -129 4 0 10 -3 13 -8 27 -40 353 -207 426
-218 25 -3 43 -10 41 -14 -3 -4 8 -7 24 -6 16 1 27 -2 24 -7 -5 -7 18 -12 39
-9 4 0 7 -3 7 -8 0 -5 17 -12 37 -16 42 -8 136 -15 112 -8 -19 5 -14 52 7 60
8 3 14 14 14 24 0 10 5 19 10 19 6 0 10 5 10 11 0 6 -9 9 -20 6 -13 -3 -20 0
-20 9 0 8 -4 14 -9 14 -5 0 -5 15 -1 36 14 63 29 61 33 -4 1 -23 4 -42 7 -42
7 0 30 107 30 139 0 19 3 21 13 12 14 -11 27 -5 27 11 0 11 -79 7 -86 -4 -8
-12 -24 1 -24 18 0 8 9 14 20 14 11 0 20 -5 20 -11 0 -6 7 -4 15 5 8 8 15 22
15 30 0 9 5 16 10 16 22 0 8 20 -17 26 -16 4 -32 10 -38 14 -5 3 -23 7 -39 8
-63 4 -30 9 97 15 109 5 160 13 292 47 132 34 277 87 355 131 55 30 161 97
191 121 20 15 41 28 46 28 6 0 18 10 29 22 l19 21 -25 -16 c-14 -8 -69 -34
-124 -57 -167 -71 -393 -97 -571 -65 -44 8 -91 15 -105 15 -47 1 -268 97 -352
153 -92 61 -212 173 -275 257 -151 201 -234 489 -205 713 14 105 65 287 97
342 12 22 33 58 45 80 37 68 132 185 195 242 235 215 530 324 840 310 211 -9
400 -64 546 -159 194 -125 302 -166 452 -175 94 -5 109 -3 182 22 85 30 161
81 231 157 48 52 61 83 44 104 -7 8 -20 28 -29 44 -23 43 -154 185 -235 255
-37 33 -73 65 -80 70 -6 6 -33 26 -61 45 -27 18 -69 46 -93 63 -114 78 -375
188 -549 232 -131 33 -497 63 -598 49z m-422 -3061 c-7 -2 -19 -2 -25 0 -7 3
-2 5 12 5 14 0 19 -2 13 -5z m115 -50 c-4 -23 -34 -25 -35 -2 -1 13 5 19 18
19 14 0 19 -6 17 -17z m32 8 c0 -6 -4 -13 -10 -16 -5 -3 -10 1 -10 9 0 9 5 16
10 16 6 0 10 -4 10 -9z m-80 -61 c0 -5 -5 -10 -11 -10 -5 0 -7 5 -4 10 3 6 8
10 11 10 2 0 4 -4 4 -10z m20 -236 c0 -8 -4 -14 -10 -14 -5 0 -10 9 -10 21 0
11 5 17 10 14 6 -3 10 -13 10 -21z"/>
<path d="M5023 3559 c-13 -4 -23 -5 -24 -1 0 4 -5 -4 -10 -17 -7 -17 -15 -22
-29 -18 -11 3 -20 1 -20 -4 0 -5 -6 -9 -13 -9 -7 0 -18 -5 -24 -11 -6 -6 -40
-21 -74 -33 -35 -12 -84 -36 -109 -52 -41 -26 -43 -29 -21 -32 19 -3 21 -6 10
-13 -23 -14 3 -43 46 -50 21 -4 42 -14 47 -23 5 -9 14 -16 20 -16 6 0 16 -8
23 -17 8 -11 25 -17 49 -16 32 1 35 -1 24 -14 -11 -14 -10 -15 12 -8 34 10 37
14 20 26 -11 7 -1 9 33 4 32 -4 47 -3 47 5 0 6 4 9 8 6 4 -2 38 4 75 14 37 10
67 16 67 12 0 -7 -135 -52 -154 -52 -16 0 -240 -111 -273 -136 -17 -13 -35
-24 -39 -24 -9 0 -88 -68 -162 -140 -57 -55 -106 -112 -139 -160 -9 -14 -23
-29 -29 -35 -15 -12 -66 -107 -60 -112 5 -6 59 24 131 73 211 142 506 195 807
144 132 -21 222 -51 322 -105 37 -20 73 -34 80 -32 7 3 19 1 27 -5 11 -8 10
-9 -4 -4 -29 9 -15 -16 19 -34 41 -21 64 -25 41 -6 -18 14 -18 14 0 19 15 4
15 5 -3 6 -34 2 -44 51 -11 51 17 0 45 35 53 64 3 14 12 30 20 37 8 6 14 18
14 25 0 8 5 14 10 14 6 0 10 7 10 15 0 15 15 19 58 15 22 -1 31 15 12 22 -5 2
-7 12 -4 23 4 15 15 22 37 23 39 3 41 6 28 29 -6 10 -11 12 -11 6 0 -16 -30
-17 -30 -2 0 6 9 13 20 16 11 3 27 20 36 38 8 18 25 36 37 40 21 6 21 6 2 14
-16 6 -12 9 18 14 24 4 51 0 74 -10 26 -10 38 -12 41 -4 2 7 11 6 25 -4 12 -8
29 -15 39 -15 10 0 18 -6 18 -13 0 -25 106 -97 142 -97 15 0 88 -68 130 -123
16 -19 37 -37 48 -40 21 -5 21 -5 1 26 -25 39 -251 277 -264 277 -5 0 -28 18
-50 39 -63 59 -262 186 -362 230 -16 7 -38 17 -48 22 -90 46 -250 93 -427 125
-97 18 -354 27 -387 13z m-143 -109 c0 -5 -2 -10 -4 -10 -3 0 -8 5 -11 10 -3
6 -1 10 4 10 6 0 11 -4 11 -10z m365 -150 c-7 -12 -55 -14 -55 -2 0 4 14 8 30
9 18 1 28 -2 25 -7z m-308 -26 c-3 -3 -12 -4 -19 -1 -8 3 -5 6 6 6 11 1 17 -2
13 -5z m1515 -304 c6 0 9 -3 6 -6 -9 -8 -48 14 -48 27 0 6 7 3 16 -5 8 -9 20
-16 26 -16z"/>
<path d="M4935 3550 c3 -5 8 -10 11 -10 2 0 4 5 4 10 0 6 -5 10 -11 10 -5 0
-7 -4 -4 -10z"/>
<path d="M4795 3190 c-13 -6 -15 -9 -5 -9 8 0 22 4 30 9 18 12 2 12 -25 0z"/>
<path d="M5870 2890 c-12 -8 -10 -10 8 -10 13 0 20 4 17 10 -7 12 -6 12 -25 0z"/>
<path d="M5790 2600 c0 -6 6 -13 13 -16 7 -2 40 -36 73 -75 32 -39 71 -85 86
-102 15 -18 28 -36 28 -40 0 -4 20 -43 44 -85 55 -96 110 -266 126 -394 11
-77 11 -114 1 -185 -16 -114 -88 -325 -143 -416 -166 -279 -444 -478 -748
-536 -91 -17 -239 -21 -335 -9 -49 6 -105 11 -122 11 -18 0 -33 4 -33 9 0 4
-4 8 -10 8 -5 0 -10 -11 -10 -24 0 -32 -29 -63 -42 -44 -7 10 -11 9 -22 -5
-10 -13 -15 -15 -19 -5 -2 7 -4 -2 -3 -19 1 -18 4 -33 8 -33 9 0 -24 -74 -34
-78 -5 -2 -8 -8 -8 -14 0 -11 -44 -49 -69 -60 -11 -4 -6 -7 13 -7 30 -1 28
-15 -2 -17 -10 -1 -27 -2 -39 -3 -20 -1 -63 -61 -43 -61 14 0 -2 -41 -18 -48
-9 -3 -24 -14 -35 -25 -20 -20 -20 -20 5 -15 21 4 48 -11 48 -26 0 -3 -15 -10
-32 -15 -30 -8 -31 -9 -8 -10 15 -1 30 -5 35 -10 33 -31 267 -40 410 -16 273
45 455 119 687 277 76 52 318 293 318 317 0 5 6 16 13 23 16 17 67 96 67 104
0 3 17 36 37 72 38 68 46 89 103 272 18 58 40 110 49 116 12 9 13 15 3 26 -19
23 -20 158 -2 158 6 0 10 -12 10 -27 0 -21 3 -24 9 -14 5 8 7 21 4 30 -4 13
-3 13 5 2 5 -7 15 -10 21 -7 7 5 11 -3 11 -22 0 -19 6 -32 17 -36 13 -5 14 -9
4 -19 -9 -9 -14 -9 -21 3 -5 8 -10 10 -10 5 0 -15 29 -55 40 -55 5 0 12 9 15
21 8 23 20 17 20 -9 0 -10 7 -16 17 -14 9 1 19 -2 23 -8 3 -5 25 -10 49 -10
23 0 47 -5 53 -11 5 -5 35 -11 66 -12 l56 -2 4 -35 c3 -30 4 -27 7 15 l3 50 8
-50 c4 -32 6 1 4 90 -4 166 -30 311 -73 405 -16 36 -39 85 -50 110 -11 25 -32
60 -46 79 -14 19 -26 39 -26 44 0 26 -218 253 -300 312 -60 43 -222 135 -238
135 -8 0 -27 9 -43 21 -16 11 -29 15 -29 9z m623 -1137 c-7 -2 -19 -2 -25 0
-7 3 -2 5 12 5 14 0 19 -2 13 -5z m-1603 -733 c0 -5 -2 -10 -4 -10 -3 0 -8 5
-11 10 -3 6 -1 10 4 10 6 0 11 -4 11 -10z m-90 -60 c0 -5 -4 -10 -10 -10 -5 0
-10 5 -10 10 0 6 5 10 10 10 6 0 10 -4 10 -10z m-180 -255 c0 -8 -4 -15 -10
-15 -5 0 -10 7 -10 15 0 8 5 15 10 15 6 0 10 -7 10 -15z"/>
<path d="M3800 2569 c-19 -6 -48 -16 -65 -24 -30 -14 -29 -15 30 -15 62 0 97
11 76 24 -6 4 -9 12 -6 17 4 5 5 9 3 8 -2 0 -19 -5 -38 -10z"/>
<path d="M1310 2331 c0 -8 36 -88 122 -271 22 -47 54 -114 70 -150 17 -36 50
-105 73 -155 24 -49 58 -121 75 -160 123 -271 225 -482 239 -493 25 -21 214
-10 273 16 56 25 80 57 147 202 30 63 73 156 96 205 24 50 64 135 90 190 25
55 55 118 65 140 10 22 32 69 48 105 17 36 54 115 82 175 89 188 92 195 74
202 -9 3 -60 3 -114 0 -121 -6 -178 -29 -212 -84 -25 -39 -158 -309 -158 -320
0 -6 -172 -380 -203 -440 -12 -24 -25 -43 -30 -43 -4 0 -14 15 -21 33 -8 17
-39 86 -69 152 -30 66 -67 149 -82 185 -15 36 -42 97 -60 135 -18 39 -35 80
-39 93 -4 12 -29 67 -56 122 -54 110 -87 140 -170 159 -55 13 -240 14 -240 2z"/>
<path d="M4617 2330 c-26 -5 -62 -17 -79 -27 -40 -23 -80 -98 -86 -163 l-5
-50 256 0 c195 0 256 -3 260 -12 3 -7 10 2 17 20 7 17 17 32 22 32 6 0 8 9 5
20 -3 11 -1 20 4 20 5 0 9 5 9 10 0 6 -7 10 -15 10 -8 0 -15 5 -15 10 0 6 9
10 20 10 11 0 20 5 20 10 0 6 -9 10 -20 10 -14 0 -20 7 -20 23 0 45 12 66 39
70 14 2 -39 5 -119 6 -80 0 -167 3 -195 5 -27 3 -71 1 -98 -4z"/>
<path d="M3095 2311 c-45 -21 -69 -44 -84 -83 -6 -16 -12 -244 -16 -580 -4
-304 -11 -580 -16 -613 -63 -378 -288 -674 -637 -837 -48 -22 -105 -47 -127
-55 -74 -26 -299 -64 -425 -71 -165 -8 -108 -18 126 -21 158 -1 197 1 310 24
122 24 245 56 289 75 11 5 55 23 98 40 153 59 335 165 398 230 14 15 35 33 45
41 35 26 100 113 142 192 48 86 87 200 72 205 -6 2 -7 8 -4 13 7 13 -15 41
-27 33 -5 -3 -12 8 -15 25 -4 17 -13 31 -20 31 -8 0 -14 7 -14 16 0 8 4 13 9
9 10 -6 26 33 17 42 -3 3 -12 -2 -21 -11 -23 -22 -24 -21 -12 23 9 33 7 47 -8
80 -10 23 -21 41 -25 41 -3 0 -6 16 -7 35 -1 28 3 35 18 35 10 0 19 5 19 10 0
6 -6 10 -14 10 -18 0 -29 16 -32 49 -2 14 -6 38 -10 53 -8 37 15 88 41 88 13
0 16 3 8 8 -9 5 -3 16 18 36 23 22 27 31 17 37 -10 7 -9 9 5 9 9 0 17 5 17 10
0 9 -14 14 -32 11 -10 -1 -11 5 -10 114 0 71 -1 80 -7 45 -8 -49 -17 -40 -24
27 -4 32 0 48 14 64 10 12 21 30 25 41 3 10 11 17 17 15 7 -2 19 3 27 11 11
12 12 16 2 20 -6 2 -13 13 -13 25 -1 17 -2 18 -6 5 -2 -10 -9 -18 -15 -18 -6
0 -9 26 -7 68 2 37 0 72 -4 78 -12 19 4 74 25 85 10 5 18 15 17 22 -1 7 -1 26
0 44 1 26 4 30 21 26 15 -4 20 0 20 15 0 12 -4 23 -9 26 -4 3 -11 19 -14 36
-6 29 -8 30 -64 30 -35 0 -74 -8 -98 -19z m75 -71 c0 -5 -7 -7 -15 -4 -8 4
-12 10 -9 15 6 11 24 2 24 -11z m60 -25 c0 -2 -7 -5 -15 -9 -9 -3 -15 0 -15 9
0 9 6 12 15 9 8 -4 15 -7 15 -9z m-91 -484 c1 -35 -5 -22 -12 24 -5 28 -4 34
3 20 5 -11 9 -31 9 -44z"/>
<path d="M4976 2064 c-3 -9 -5 -57 -5 -107 1 -51 4 -78 7 -62 l5 30 7 -30 c8
-30 8 -29 9 8 0 20 6 37 11 37 6 0 10 14 10 31 0 28 2 30 17 18 15 -12 16 -12
10 4 -4 10 -7 21 -7 23 0 3 -4 2 -10 -1 -6 -4 -10 9 -11 32 -1 38 -1 38 -9 8
-7 -27 -15 -18 -11 13 3 18 -16 15 -23 -4z"/>
<path d="M4971 1810 c-3 -60 -4 -391 -2 -567 l1 -143 50 0 c28 0 50 4 50 9 0
6 -10 8 -22 6 -16 -4 -19 -2 -10 7 17 17 15 33 -3 18 -13 -11 -15 -1 -17 76
-1 75 -2 81 -7 39 l-7 -50 -14 58 c-12 50 -12 60 0 67 9 6 17 4 22 -3 4 -7 8
4 8 26 0 20 -4 37 -10 37 -5 0 -10 23 -10 51 0 31 4 48 10 44 6 -4 10 17 10
57 0 44 -3 58 -10 48 -7 -11 -8 -5 -4 20 3 19 9 62 13 95 8 54 9 56 10 18 1
-56 16 -63 16 -7 0 24 -3 44 -7 44 -5 0 -11 0 -15 0 -5 1 -11 -14 -14 -32 -5
-24 -7 -15 -9 37 -1 50 -4 63 -10 45 -7 -24 -7 -23 -12 10 -5 33 -5 33 -7 -10z
m16 -197 c-3 -10 -5 -4 -5 12 0 17 2 24 5 18 2 -7 2 -21 0 -30z"/>
<path d="M5027 1626 c-4 -10 -5 -21 -2 -24 9 -9 17 6 13 25 -3 17 -4 17 -11
-1z"/>
<path d="M5030 1542 c0 -53 5 -63 26 -55 11 4 12 9 3 19 -9 11 -8 14 2 14 9 1
8 4 -4 11 -11 7 -16 17 -12 29 3 10 1 21 -5 25 -6 4 -10 -11 -10 -43z"/>
<path d="M6210 1561 c0 -6 5 -13 10 -16 6 -3 10 1 10 9 0 9 -4 16 -10 16 -5 0
-10 -4 -10 -9z"/>
<path d="M6300 1420 c0 -5 5 -10 10 -10 6 0 10 5 10 10 0 6 -4 10 -10 10 -5 0
-10 -4 -10 -10z"/>
<path d="M5031 1370 c0 -14 4 -34 9 -45 8 -18 9 -18 9 5 0 14 -4 34 -9 45 -8
18 -9 18 -9 -5z"/>
<path d="M5031 1184 c0 -11 3 -14 6 -6 3 7 2 16 -1 19 -3 4 -6 -2 -5 -13z"/>
<path d="M3192 1160 c0 -14 2 -19 5 -12 2 6 2 18 0 25 -3 6 -5 1 -5 -13z"/>
<path d="M4728 763 c7 -3 16 -2 19 1 4 3 -2 6 -13 5 -11 0 -14 -3 -6 -6z"/>
<path d="M6540 391 c-116 -79 -117 -236 -3 -315 35 -24 52 -29 101 -29 100 1
164 52 183 143 9 47 8 63 -8 109 -25 75 -79 114 -166 119 -56 3 -67 0 -107
-27z m161 -13 c74 -22 119 -125 89 -203 -24 -63 -118 -115 -179 -100 -78 20
-131 82 -131 155 0 63 27 110 80 138 50 25 85 27 141 10z"/>
<path d="M6593 333 c-22 -4 -23 -9 -23 -104 0 -79 3 -99 14 -99 10 0 16 13 18
37 4 54 30 55 60 4 26 -45 65 -59 52 -18 -3 12 -13 30 -22 40 -14 16 -13 19 6
40 58 62 -3 120 -105 100z m71 -29 c9 -3 16 -15 16 -25 0 -22 -41 -45 -64 -36
-16 6 -22 48 -9 60 8 9 36 9 57 1z"/>
<path d="M4438 293 c6 -2 18 -2 25 0 6 3 1 5 -13 5 -14 0 -19 -2 -12 -5z"/>
<path d="M1588 73 c7 -3 16 -2 19 1 4 3 -2 6 -13 5 -11 0 -14 -3 -6 -6z"/>
</g>
</svg>
